<svg width="16" height="16" viewBox="0 0 16 16" fill="none" xmlns="http://www.w3.org/2000/svg">
<g id="globe">
<path id="Vector" d="M14.9299 8.99755C14.4476 12.3785 11.5493 14.9807 8.03951 14.9999C8.02636 15.0003 8.01319 15.0005 8 15.0005C7.98673 15.0005 7.97349 15.0003 7.96027 14.9999C7.63544 14.9981 7.31585 14.9741 7.00294 14.9295C3.60945 14.4453 1.00049 11.5273 1.00049 8C1.00049 4.13401 4.1345 1 8.00049 1C11.8665 1 15.0005 4.13401 15.0005 8C15.0005 8.33867 14.9764 8.67173 14.9299 8.99755ZM13.4562 10.5005H10.803C10.5859 11.8249 10.2014 12.956 9.70986 13.753C11.3768 13.2585 12.7407 12.0592 13.4562 10.5005ZM13.8113 9.50049C13.9348 9.02091 14.0005 8.51813 14.0005 8C14.0005 7.48223 13.9349 6.97977 13.8116 6.50049H10.931C10.9762 6.98372 11 7.48561 11 8.00049C11 8.51536 10.9762 9.01725 10.931 9.50049H13.8113ZM13.4567 5.50049C12.7411 3.94108 11.3767 2.74129 9.70912 2.24679C10.201 3.04381 10.5858 4.17545 10.803 5.50049H13.4567ZM9.78859 5.50049C9.64852 4.7107 9.44588 4.0133 9.20218 3.44466C8.96249 2.88539 8.70277 2.49669 8.4653 2.26233C8.23213 2.03221 8.07605 2.00049 8 2.00049C7.92395 2.00049 7.76787 2.03221 7.5347 2.26233C7.29723 2.49669 7.03751 2.88539 6.79782 3.44466C6.55412 4.0133 6.35148 4.7107 6.21141 5.50049H9.78859ZM5.19698 5.50049C5.41415 4.17564 5.79887 3.04414 6.29066 2.24714C4.62361 2.74186 3.25968 3.94145 2.54431 5.50049H5.19698ZM2.18939 6.50049C2.06607 6.97977 2.00049 7.48223 2.00049 8C2.00049 8.51813 2.06616 9.02091 2.18964 9.50049H5.06904C5.02382 9.01725 5 8.51536 5 8.00049C5 7.48561 5.02382 6.98372 5.06904 6.50049H2.18939ZM2.54475 10.5005C3.26014 12.0588 4.62355 13.2579 6.28992 13.7526C5.79849 12.9557 5.41404 11.8247 5.19698 10.5005H2.54475ZM6.21141 10.5005C6.35148 11.2903 6.55412 11.9877 6.79782 12.5563C7.03751 13.1156 7.29723 13.5043 7.5347 13.7386C7.7517 13.9528 7.90193 13.9951 7.98303 14L8.00049 14L8.01693 14C8.09801 13.9952 8.24826 13.9528 8.4653 13.7386C8.70277 13.5043 8.96249 13.1156 9.20218 12.5563C9.44588 11.9877 9.64852 11.2903 9.78859 10.5005H6.21141ZM9.9263 9.50049C9.9742 9.02248 10 8.52038 10 8.00049C10 7.48059 9.9742 6.9785 9.9263 6.50049H6.0737C6.0258 6.9785 6 7.48059 6 8.00049C6 8.52038 6.0258 9.02248 6.0737 9.50049H9.9263Z" fill="#0F1215"/>
</g>
</svg>
