<svg width="24" height="24" viewBox="0 0 24 24" fill="none" xmlns="http://www.w3.org/2000/svg">
<path fill-rule="evenodd" clip-rule="evenodd" d="M16.7192 16.7197C17.012 16.4268 17.4869 16.4268 17.7798 16.7196L21.5302 20.4696C21.8231 20.7625 21.8231 21.2374 21.5302 21.5303C21.2374 21.8232 20.7625 21.8232 20.4696 21.5304L16.7192 17.7804C16.4263 17.4875 16.4263 17.0126 16.7192 16.7197Z" fill="#18181E"/>
<path fill-rule="evenodd" clip-rule="evenodd" d="M11 18.5C15.1421 18.5 18.5 15.1421 18.5 11C18.5 6.85786 15.1421 3.5 11 3.5C6.85786 3.5 3.5 6.85786 3.5 11C3.5 15.1421 6.85786 18.5 11 18.5ZM11 20C15.9706 20 20 15.9706 20 11C20 6.02944 15.9706 2 11 2C6.02944 2 2 6.02944 2 11C2 15.9706 6.02944 20 11 20Z" fill="#18181E"/>
</svg>
