<svg width="16" height="16" viewBox="0 0 16 16" fill="none" xmlns="http://www.w3.org/2000/svg">
<path d="M2.66634 2.6665C1.92996 2.6665 1.33301 3.26346 1.33301 3.99984V11.9998C1.33301 12.7362 1.92996 13.3332 2.66634 13.3332H13.333C14.0694 13.3332 14.6663 12.7362 14.6663 11.9998V3.99984C14.6663 3.26346 14.0694 2.6665 13.333 2.6665H2.66634ZM7.33301 6.6665H11.9997C12.3679 6.6665 12.6663 6.96498 12.6663 7.33317V10.6665C12.6663 11.0347 12.3679 11.3332 11.9997 11.3332H7.33301C6.96482 11.3332 6.66634 11.0347 6.66634 10.6665V7.33317C6.66634 6.96498 6.96482 6.6665 7.33301 6.6665Z" fill="#08aa54"></path>
</svg>